<mxfile host="app.diagrams.net" agent="Mozilla/5.0 (Windows NT 10.0; Win64; x64) AppleWebKit/537.36 (KHTML, like Gecko) Chrome/140.0.0.0 Safari/537.36" version="28.2.5">
  <diagram name="Page-1" id="oHvYGQ-RQWDGXL5va-Dy">
    <mxGraphModel dx="1281" dy="562" grid="1" gridSize="10" guides="1" tooltips="1" connect="1" arrows="1" fold="1" page="1" pageScale="1" pageWidth="850" pageHeight="1100" math="0" shadow="0">
      <root>
        <mxCell id="0" />
        <mxCell id="1" parent="0" />
        <mxCell id="OcF3jWPZ1jGCGQGwCR3F-21" value="" style="shape=table;startSize=30;container=1;collapsible=0;childLayout=tableLayout;fixedRows=1;rowLines=0;fontStyle=0;strokeColor=default;fontSize=16;" vertex="1" parent="1">
          <mxGeometry x="360" y="40" width="350" height="680" as="geometry" />
        </mxCell>
        <mxCell id="OcF3jWPZ1jGCGQGwCR3F-22" value="" style="shape=tableRow;horizontal=0;startSize=0;swimlaneHead=0;swimlaneBody=0;top=0;left=0;bottom=0;right=0;collapsible=0;dropTarget=0;fillColor=none;points=[[0,0.5],[1,0.5]];portConstraint=eastwest;strokeColor=inherit;fontSize=16;" vertex="1" parent="OcF3jWPZ1jGCGQGwCR3F-21">
          <mxGeometry y="30" width="350" height="50" as="geometry" />
        </mxCell>
        <mxCell id="OcF3jWPZ1jGCGQGwCR3F-23" value="" style="shape=partialRectangle;html=1;whiteSpace=wrap;connectable=0;fillColor=none;top=0;left=0;bottom=0;right=0;overflow=hidden;pointerEvents=1;strokeColor=inherit;fontSize=16;" vertex="1" parent="OcF3jWPZ1jGCGQGwCR3F-22">
          <mxGeometry width="39" height="50" as="geometry">
            <mxRectangle width="39" height="50" as="alternateBounds" />
          </mxGeometry>
        </mxCell>
        <mxCell id="OcF3jWPZ1jGCGQGwCR3F-24" value="" style="shape=partialRectangle;html=1;whiteSpace=wrap;connectable=0;fillColor=none;top=0;left=0;bottom=0;right=0;align=left;spacingLeft=6;overflow=hidden;strokeColor=inherit;fontSize=16;" vertex="1" parent="OcF3jWPZ1jGCGQGwCR3F-22">
          <mxGeometry x="39" width="311" height="50" as="geometry">
            <mxRectangle width="311" height="50" as="alternateBounds" />
          </mxGeometry>
        </mxCell>
        <mxCell id="OcF3jWPZ1jGCGQGwCR3F-25" value="" style="shape=tableRow;horizontal=0;startSize=0;swimlaneHead=0;swimlaneBody=0;top=0;left=0;bottom=0;right=0;collapsible=0;dropTarget=0;fillColor=none;points=[[0,0.5],[1,0.5]];portConstraint=eastwest;strokeColor=inherit;fontSize=16;" vertex="1" parent="OcF3jWPZ1jGCGQGwCR3F-21">
          <mxGeometry y="80" width="350" height="30" as="geometry" />
        </mxCell>
        <mxCell id="OcF3jWPZ1jGCGQGwCR3F-26" value="" style="shape=partialRectangle;html=1;whiteSpace=wrap;connectable=0;fillColor=none;top=0;left=0;bottom=0;right=0;overflow=hidden;strokeColor=inherit;fontSize=16;" vertex="1" parent="OcF3jWPZ1jGCGQGwCR3F-25">
          <mxGeometry width="39" height="30" as="geometry">
            <mxRectangle width="39" height="30" as="alternateBounds" />
          </mxGeometry>
        </mxCell>
        <mxCell id="OcF3jWPZ1jGCGQGwCR3F-27" value="" style="shape=partialRectangle;html=1;whiteSpace=wrap;connectable=0;fillColor=none;top=0;left=0;bottom=0;right=0;align=left;spacingLeft=6;overflow=hidden;strokeColor=inherit;fontSize=16;" vertex="1" parent="OcF3jWPZ1jGCGQGwCR3F-25">
          <mxGeometry x="39" width="311" height="30" as="geometry">
            <mxRectangle width="311" height="30" as="alternateBounds" />
          </mxGeometry>
        </mxCell>
        <mxCell id="OcF3jWPZ1jGCGQGwCR3F-28" value="" style="shape=tableRow;horizontal=0;startSize=0;swimlaneHead=0;swimlaneBody=0;top=0;left=0;bottom=0;right=0;collapsible=0;dropTarget=0;fillColor=none;points=[[0,0.5],[1,0.5]];portConstraint=eastwest;strokeColor=inherit;fontSize=16;" vertex="1" parent="OcF3jWPZ1jGCGQGwCR3F-21">
          <mxGeometry y="110" width="350" height="20" as="geometry" />
        </mxCell>
        <mxCell id="OcF3jWPZ1jGCGQGwCR3F-29" value="" style="shape=partialRectangle;html=1;whiteSpace=wrap;connectable=0;fillColor=none;top=0;left=0;bottom=0;right=0;overflow=hidden;strokeColor=inherit;fontSize=16;" vertex="1" parent="OcF3jWPZ1jGCGQGwCR3F-28">
          <mxGeometry width="39" height="20" as="geometry">
            <mxRectangle width="39" height="20" as="alternateBounds" />
          </mxGeometry>
        </mxCell>
        <mxCell id="OcF3jWPZ1jGCGQGwCR3F-30" value="" style="shape=partialRectangle;html=1;whiteSpace=wrap;connectable=0;fillColor=none;top=0;left=0;bottom=0;right=0;align=left;spacingLeft=6;overflow=hidden;strokeColor=inherit;fontSize=16;" vertex="1" parent="OcF3jWPZ1jGCGQGwCR3F-28">
          <mxGeometry x="39" width="311" height="20" as="geometry">
            <mxRectangle width="311" height="20" as="alternateBounds" />
          </mxGeometry>
        </mxCell>
        <mxCell id="OcF3jWPZ1jGCGQGwCR3F-46" style="edgeStyle=orthogonalEdgeStyle;rounded=0;orthogonalLoop=1;jettySize=auto;html=1;exitX=1;exitY=0.5;exitDx=0;exitDy=0;entryX=0;entryY=0.5;entryDx=0;entryDy=0;" edge="1" parent="1" source="OcF3jWPZ1jGCGQGwCR3F-31" target="OcF3jWPZ1jGCGQGwCR3F-21">
          <mxGeometry relative="1" as="geometry" />
        </mxCell>
        <mxCell id="OcF3jWPZ1jGCGQGwCR3F-31" value="" style="shape=table;startSize=30;container=1;collapsible=0;childLayout=tableLayout;fixedRows=1;rowLines=0;fontStyle=0;strokeColor=default;fontSize=16;" vertex="1" parent="1">
          <mxGeometry x="70" y="40" width="290" height="680" as="geometry" />
        </mxCell>
        <mxCell id="OcF3jWPZ1jGCGQGwCR3F-32" value="" style="shape=tableRow;horizontal=0;startSize=0;swimlaneHead=0;swimlaneBody=0;top=0;left=0;bottom=0;right=0;collapsible=0;dropTarget=0;fillColor=none;points=[[0,0.5],[1,0.5]];portConstraint=eastwest;strokeColor=inherit;fontSize=16;" vertex="1" parent="OcF3jWPZ1jGCGQGwCR3F-31">
          <mxGeometry y="30" width="290" height="50" as="geometry" />
        </mxCell>
        <mxCell id="OcF3jWPZ1jGCGQGwCR3F-33" value="" style="shape=partialRectangle;html=1;whiteSpace=wrap;connectable=0;fillColor=none;top=0;left=0;bottom=0;right=0;overflow=hidden;pointerEvents=1;strokeColor=inherit;fontSize=16;" vertex="1" parent="OcF3jWPZ1jGCGQGwCR3F-32">
          <mxGeometry width="32" height="50" as="geometry">
            <mxRectangle width="32" height="50" as="alternateBounds" />
          </mxGeometry>
        </mxCell>
        <mxCell id="OcF3jWPZ1jGCGQGwCR3F-34" value="" style="shape=partialRectangle;html=1;whiteSpace=wrap;connectable=0;fillColor=none;top=0;left=0;bottom=0;right=0;align=left;spacingLeft=6;overflow=hidden;strokeColor=inherit;fontSize=16;" vertex="1" parent="OcF3jWPZ1jGCGQGwCR3F-32">
          <mxGeometry x="32" width="258" height="50" as="geometry">
            <mxRectangle width="258" height="50" as="alternateBounds" />
          </mxGeometry>
        </mxCell>
        <mxCell id="OcF3jWPZ1jGCGQGwCR3F-35" value="" style="shape=tableRow;horizontal=0;startSize=0;swimlaneHead=0;swimlaneBody=0;top=0;left=0;bottom=0;right=0;collapsible=0;dropTarget=0;fillColor=none;points=[[0,0.5],[1,0.5]];portConstraint=eastwest;strokeColor=inherit;fontSize=16;" vertex="1" parent="OcF3jWPZ1jGCGQGwCR3F-31">
          <mxGeometry y="80" width="290" height="30" as="geometry" />
        </mxCell>
        <mxCell id="OcF3jWPZ1jGCGQGwCR3F-36" value="" style="shape=partialRectangle;html=1;whiteSpace=wrap;connectable=0;fillColor=none;top=0;left=0;bottom=0;right=0;overflow=hidden;strokeColor=inherit;fontSize=16;" vertex="1" parent="OcF3jWPZ1jGCGQGwCR3F-35">
          <mxGeometry width="32" height="30" as="geometry">
            <mxRectangle width="32" height="30" as="alternateBounds" />
          </mxGeometry>
        </mxCell>
        <mxCell id="OcF3jWPZ1jGCGQGwCR3F-37" value="" style="shape=partialRectangle;html=1;whiteSpace=wrap;connectable=0;fillColor=none;top=0;left=0;bottom=0;right=0;align=left;spacingLeft=6;overflow=hidden;strokeColor=inherit;fontSize=16;" vertex="1" parent="OcF3jWPZ1jGCGQGwCR3F-35">
          <mxGeometry x="32" width="258" height="30" as="geometry">
            <mxRectangle width="258" height="30" as="alternateBounds" />
          </mxGeometry>
        </mxCell>
        <mxCell id="OcF3jWPZ1jGCGQGwCR3F-38" value="" style="shape=tableRow;horizontal=0;startSize=0;swimlaneHead=0;swimlaneBody=0;top=0;left=0;bottom=0;right=0;collapsible=0;dropTarget=0;fillColor=none;points=[[0,0.5],[1,0.5]];portConstraint=eastwest;strokeColor=inherit;fontSize=16;" vertex="1" parent="OcF3jWPZ1jGCGQGwCR3F-31">
          <mxGeometry y="110" width="290" height="20" as="geometry" />
        </mxCell>
        <mxCell id="OcF3jWPZ1jGCGQGwCR3F-39" value="" style="shape=partialRectangle;html=1;whiteSpace=wrap;connectable=0;fillColor=none;top=0;left=0;bottom=0;right=0;overflow=hidden;strokeColor=inherit;fontSize=16;" vertex="1" parent="OcF3jWPZ1jGCGQGwCR3F-38">
          <mxGeometry width="32" height="20" as="geometry">
            <mxRectangle width="32" height="20" as="alternateBounds" />
          </mxGeometry>
        </mxCell>
        <mxCell id="OcF3jWPZ1jGCGQGwCR3F-40" value="" style="shape=partialRectangle;html=1;whiteSpace=wrap;connectable=0;fillColor=none;top=0;left=0;bottom=0;right=0;align=left;spacingLeft=6;overflow=hidden;strokeColor=inherit;fontSize=16;" vertex="1" parent="OcF3jWPZ1jGCGQGwCR3F-38">
          <mxGeometry x="32" width="258" height="20" as="geometry">
            <mxRectangle width="258" height="20" as="alternateBounds" />
          </mxGeometry>
        </mxCell>
        <mxCell id="OcF3jWPZ1jGCGQGwCR3F-41" value="" style="ellipse;whiteSpace=wrap;html=1;" vertex="1" parent="1">
          <mxGeometry x="180" y="80" width="70" height="40" as="geometry" />
        </mxCell>
        <mxCell id="OcF3jWPZ1jGCGQGwCR3F-42" value="MULAI" style="text;html=1;align=center;verticalAlign=middle;whiteSpace=wrap;rounded=0;" vertex="1" parent="1">
          <mxGeometry x="185" y="85" width="60" height="30" as="geometry" />
        </mxCell>
        <mxCell id="OcF3jWPZ1jGCGQGwCR3F-43" value="" style="endArrow=classic;html=1;rounded=0;entryX=0.461;entryY=0.063;entryDx=0;entryDy=0;entryPerimeter=0;" edge="1" parent="1" target="OcF3jWPZ1jGCGQGwCR3F-44">
          <mxGeometry width="50" height="50" relative="1" as="geometry">
            <mxPoint x="214.5" y="120" as="sourcePoint" />
            <mxPoint x="214.5" y="180" as="targetPoint" />
          </mxGeometry>
        </mxCell>
        <mxCell id="OcF3jWPZ1jGCGQGwCR3F-44" value="" style="rounded=1;whiteSpace=wrap;html=1;" vertex="1" parent="1">
          <mxGeometry x="110" y="150" width="220" height="60" as="geometry" />
        </mxCell>
        <mxCell id="OcF3jWPZ1jGCGQGwCR3F-45" value="MENGASES HALAMAN VERIVIKASI PEMERINTAHAN BARANG" style="text;html=1;align=center;verticalAlign=middle;whiteSpace=wrap;rounded=0;" vertex="1" parent="1">
          <mxGeometry x="130" y="165" width="180" height="30" as="geometry" />
        </mxCell>
        <mxCell id="OcF3jWPZ1jGCGQGwCR3F-49" value="" style="rounded=1;whiteSpace=wrap;html=1;" vertex="1" parent="1">
          <mxGeometry x="425" y="150" width="220" height="60" as="geometry" />
        </mxCell>
        <mxCell id="OcF3jWPZ1jGCGQGwCR3F-50" value="" style="endArrow=classic;html=1;rounded=0;exitX=1;exitY=0.5;exitDx=0;exitDy=0;entryX=0;entryY=0.5;entryDx=0;entryDy=0;" edge="1" parent="1" source="OcF3jWPZ1jGCGQGwCR3F-44" target="OcF3jWPZ1jGCGQGwCR3F-49">
          <mxGeometry width="50" height="50" relative="1" as="geometry">
            <mxPoint x="350" y="200" as="sourcePoint" />
            <mxPoint x="400" y="150" as="targetPoint" />
          </mxGeometry>
        </mxCell>
        <mxCell id="OcF3jWPZ1jGCGQGwCR3F-51" value="MENGASES HALAMAN VERIVIKASI PEMERINTAHAN BARANG" style="text;html=1;align=center;verticalAlign=middle;whiteSpace=wrap;rounded=0;" vertex="1" parent="1">
          <mxGeometry x="440" y="165" width="180" height="30" as="geometry" />
        </mxCell>
        <mxCell id="OcF3jWPZ1jGCGQGwCR3F-52" value="&lt;div&gt;&lt;br/&gt;&lt;/div&gt;" style="rounded=1;whiteSpace=wrap;html=1;" vertex="1" parent="1">
          <mxGeometry x="110" y="250" width="220" height="60" as="geometry" />
        </mxCell>
        <mxCell id="OcF3jWPZ1jGCGQGwCR3F-53" value="" style="endArrow=classic;html=1;rounded=0;exitX=0.456;exitY=0.957;exitDx=0;exitDy=0;exitPerimeter=0;entryX=0.377;entryY=0.01;entryDx=0;entryDy=0;entryPerimeter=0;" edge="1" parent="1" source="OcF3jWPZ1jGCGQGwCR3F-49" target="OcF3jWPZ1jGCGQGwCR3F-52">
          <mxGeometry width="50" height="50" relative="1" as="geometry">
            <mxPoint x="400" y="320" as="sourcePoint" />
            <mxPoint x="525" y="250" as="targetPoint" />
            <Array as="points">
              <mxPoint x="530" y="230" />
              <mxPoint x="200" y="230" />
            </Array>
          </mxGeometry>
        </mxCell>
        <mxCell id="OcF3jWPZ1jGCGQGwCR3F-54" value="MENGASES&amp;nbsp; DETAIL PEMERINTAHAN BARANG" style="text;html=1;align=center;verticalAlign=middle;whiteSpace=wrap;rounded=0;" vertex="1" parent="1">
          <mxGeometry x="152.5" y="265" width="125" height="30" as="geometry" />
        </mxCell>
        <mxCell id="OcF3jWPZ1jGCGQGwCR3F-55" value="&lt;div&gt;&lt;br/&gt;&lt;/div&gt;" style="rounded=1;whiteSpace=wrap;html=1;" vertex="1" parent="1">
          <mxGeometry x="425" y="250" width="220" height="60" as="geometry" />
        </mxCell>
        <mxCell id="OcF3jWPZ1jGCGQGwCR3F-56" value="" style="endArrow=classic;html=1;rounded=0;exitX=1;exitY=0.5;exitDx=0;exitDy=0;" edge="1" parent="1">
          <mxGeometry width="50" height="50" relative="1" as="geometry">
            <mxPoint x="330" y="279.5" as="sourcePoint" />
            <mxPoint x="425" y="280" as="targetPoint" />
          </mxGeometry>
        </mxCell>
        <mxCell id="OcF3jWPZ1jGCGQGwCR3F-57" value="MENGASES&amp;nbsp; DETAIL PEMERINTAHAN BARANG" style="text;html=1;align=center;verticalAlign=middle;whiteSpace=wrap;rounded=0;" vertex="1" parent="1">
          <mxGeometry x="480" y="265" width="125" height="30" as="geometry" />
        </mxCell>
        <mxCell id="OcF3jWPZ1jGCGQGwCR3F-58" value="" style="rounded=1;whiteSpace=wrap;html=1;" vertex="1" parent="1">
          <mxGeometry x="105" y="350" width="220" height="60" as="geometry" />
        </mxCell>
        <mxCell id="OcF3jWPZ1jGCGQGwCR3F-59" value="PERUBAHAN STATUSNYA PEMERINTAHAN BARANG&amp;nbsp;" style="text;html=1;align=center;verticalAlign=middle;whiteSpace=wrap;rounded=0;" vertex="1" parent="1">
          <mxGeometry x="143.75" y="365" width="152.5" height="30" as="geometry" />
        </mxCell>
        <mxCell id="OcF3jWPZ1jGCGQGwCR3F-60" value="" style="endArrow=classic;html=1;rounded=0;exitX=0.456;exitY=0.957;exitDx=0;exitDy=0;exitPerimeter=0;" edge="1" parent="1">
          <mxGeometry width="50" height="50" relative="1" as="geometry">
            <mxPoint x="552" y="308" as="sourcePoint" />
            <mxPoint x="220" y="352" as="targetPoint" />
            <Array as="points">
              <mxPoint x="557" y="331" />
              <mxPoint x="220" y="331" />
            </Array>
          </mxGeometry>
        </mxCell>
        <mxCell id="OcF3jWPZ1jGCGQGwCR3F-61" value="" style="rhombus;whiteSpace=wrap;html=1;" vertex="1" parent="1">
          <mxGeometry x="150" y="430" width="120" height="90" as="geometry" />
        </mxCell>
        <mxCell id="OcF3jWPZ1jGCGQGwCR3F-62" value="" style="endArrow=classic;html=1;rounded=0;exitX=0.5;exitY=1;exitDx=0;exitDy=0;" edge="1" parent="1" source="OcF3jWPZ1jGCGQGwCR3F-58" target="OcF3jWPZ1jGCGQGwCR3F-61">
          <mxGeometry width="50" height="50" relative="1" as="geometry">
            <mxPoint x="260" y="480" as="sourcePoint" />
            <mxPoint x="355" y="480.5" as="targetPoint" />
          </mxGeometry>
        </mxCell>
        <mxCell id="OcF3jWPZ1jGCGQGwCR3F-63" value="SELANJUTNYA" style="text;html=1;align=center;verticalAlign=middle;whiteSpace=wrap;rounded=0;" vertex="1" parent="1">
          <mxGeometry x="180" y="460" width="60" height="30" as="geometry" />
        </mxCell>
        <mxCell id="OcF3jWPZ1jGCGQGwCR3F-64" value="" style="rounded=1;whiteSpace=wrap;html=1;" vertex="1" parent="1">
          <mxGeometry x="110" y="560" width="220" height="60" as="geometry" />
        </mxCell>
        <mxCell id="OcF3jWPZ1jGCGQGwCR3F-65" value="MEMBERIKAN KETERANGAN PADA HALAMAN FORM PERSETUJUAN" style="text;html=1;align=center;verticalAlign=middle;whiteSpace=wrap;rounded=0;" vertex="1" parent="1">
          <mxGeometry x="138.75" y="575" width="152.5" height="30" as="geometry" />
        </mxCell>
        <mxCell id="OcF3jWPZ1jGCGQGwCR3F-66" value="" style="endArrow=classic;html=1;rounded=0;exitX=0.5;exitY=1;exitDx=0;exitDy=0;entryX=0.455;entryY=-0.05;entryDx=0;entryDy=0;entryPerimeter=0;" edge="1" parent="1" target="OcF3jWPZ1jGCGQGwCR3F-64">
          <mxGeometry width="50" height="50" relative="1" as="geometry">
            <mxPoint x="211" y="520" as="sourcePoint" />
            <mxPoint x="209" y="542" as="targetPoint" />
          </mxGeometry>
        </mxCell>
        <mxCell id="OcF3jWPZ1jGCGQGwCR3F-67" value="" style="rounded=1;whiteSpace=wrap;html=1;" vertex="1" parent="1">
          <mxGeometry x="425" y="540" width="220" height="60" as="geometry" />
        </mxCell>
        <mxCell id="OcF3jWPZ1jGCGQGwCR3F-68" value="MENYIMPAN DATA PEMERINTAAN BARANG" style="text;html=1;align=center;verticalAlign=middle;whiteSpace=wrap;rounded=0;" vertex="1" parent="1">
          <mxGeometry x="453.75" y="555" width="152.5" height="25" as="geometry" />
        </mxCell>
        <mxCell id="OcF3jWPZ1jGCGQGwCR3F-69" value="" style="endArrow=classic;html=1;rounded=0;exitX=1;exitY=0.5;exitDx=0;exitDy=0;entryX=0.471;entryY=-0.063;entryDx=0;entryDy=0;entryPerimeter=0;" edge="1" parent="1" source="OcF3jWPZ1jGCGQGwCR3F-61" target="OcF3jWPZ1jGCGQGwCR3F-67">
          <mxGeometry width="50" height="50" relative="1" as="geometry">
            <mxPoint x="326" y="480" as="sourcePoint" />
            <mxPoint x="540" y="520" as="targetPoint" />
            <Array as="points">
              <mxPoint x="530" y="475" />
            </Array>
          </mxGeometry>
        </mxCell>
        <mxCell id="OcF3jWPZ1jGCGQGwCR3F-70" value="" style="endArrow=classic;html=1;rounded=0;exitX=1;exitY=0.5;exitDx=0;exitDy=0;entryX=0;entryY=0.5;entryDx=0;entryDy=0;" edge="1" parent="1" source="OcF3jWPZ1jGCGQGwCR3F-64" target="OcF3jWPZ1jGCGQGwCR3F-67">
          <mxGeometry width="50" height="50" relative="1" as="geometry">
            <mxPoint x="381" y="540" as="sourcePoint" />
            <mxPoint x="380" y="577" as="targetPoint" />
          </mxGeometry>
        </mxCell>
      </root>
    </mxGraphModel>
  </diagram>
</mxfile>
